<?xml version="1.0" standalone="no"?>
<!DOCTYPE svg PUBLIC "-//W3C//DTD SVG 20010904//EN"
 "http://www.w3.org/TR/2001/REC-SVG-20010904/DTD/svg10.dtd">
<svg version="1.0" xmlns="http://www.w3.org/2000/svg"
 width="245.000000pt" height="245.000000pt" viewBox="0 0 245.000000 245.000000"
 preserveAspectRatio="xMidYMid meet">
<metadata>
Created by potrace 1.14, written by Peter Selinger 2001-2017
</metadata>
<g transform="translate(0.000000,245.000000) scale(0.100000,-0.100000)"
fill="#000000" stroke="none">
<path d="M1160 1902 c-50 -6 -142 -32 -183 -51 -48 -23 -113 -67 -82 -56 126
45 144 48 240 49 113 1 171 -12 260 -58 67 -35 80 -44 140 -102 101 -98 149
-262 114 -385 -7 -24 -13 -47 -13 -51 -1 -4 -7 -13 -13 -20 -7 -6 -13 -17 -13
-24 0 -21 -90 -95 -147 -121 -164 -75 -359 48 -352 222 2 48 33 125 51 125 5
0 6 5 3 10 -14 23 -90 -10 -127 -54 -26 -32 -45 -96 -42 -145 3 -63 -14 -28
-19 39 -6 67 14 162 47 233 30 62 114 153 169 182 20 11 37 23 37 26 0 4 -20
14 -44 22 -81 28 -210 11 -309 -40 -48 -24 -151 -135 -177 -190 -13 -29 -26
-50 -28 -48 -6 6 38 148 50 163 6 7 8 15 5 18 -10 11 -87 -78 -113 -132 -62
-126 -79 -306 -43 -447 53 -208 199 -378 398 -461 126 -54 288 -65 421 -31
167 43 298 139 400 292 81 122 111 233 105 393 -6 187 -70 328 -210 463 -113
110 -272 177 -429 181 -39 1 -82 0 -96 -2z"/>
</g>
</svg>
